<?xml version="1.0" encoding="UTF-8"?>
<svg width="158px" height="58px" viewBox="0 0 158 58" version="1.1" xmlns="http://www.w3.org/2000/svg" xmlns:xlink="http://www.w3.org/1999/xlink">
    <!-- Generator: Sketch 49 (51002) - http://www.bohemiancoding.com/sketch -->
    <title>logo</title>
    <desc>Created with Sketch.</desc>
    <defs></defs>
    <g id="Page-1" stroke="none" stroke-width="1" fill="none" fill-rule="evenodd">
        <g id="logo" transform="translate(1.000000, 1.000000)">
            <path d="M66.28,28.432 L71.728,13.528 C72.016,12.736 72.112,12.592 72.256,12.592 C72.4,12.592 72.496,12.712 72.784,13.456 C73.144,14.368 76.912,24.28 78.376,27.928 C79.24,30.064 79.936,30.448 80.44,30.592 C80.8,30.712 81.16,30.736 81.4,30.736 C81.544,30.736 81.64,30.76 81.64,30.88 C81.64,31.024 81.424,31.072 81.16,31.072 C80.8,31.072 79.048,31.072 77.392,31.024 C76.936,31 76.672,31 76.672,30.856 C76.672,30.76 76.744,30.712 76.84,30.688 C76.984,30.64 77.128,30.424 76.984,30.04 L74.752,24.136 C74.704,24.04 74.656,23.992 74.536,23.992 L69.376,23.992 C69.256,23.992 69.184,24.064 69.136,24.184 L67.696,28.432 C67.48,29.032 67.36,29.608 67.36,30.04 C67.36,30.52 67.864,30.736 68.272,30.736 L68.512,30.736 C68.68,30.736 68.752,30.784 68.752,30.88 C68.752,31.024 68.608,31.072 68.392,31.072 C67.816,31.072 66.784,31 66.52,31 C66.256,31 64.936,31.072 63.808,31.072 C63.496,31.072 63.352,31.024 63.352,30.88 C63.352,30.784 63.448,30.736 63.568,30.736 C63.736,30.736 64.072,30.712 64.264,30.688 C65.368,30.544 65.848,29.632 66.28,28.432 Z M69.64,23.128 L74.224,23.128 C74.344,23.128 74.344,23.056 74.32,22.96 L72.04,16.48 C71.92,16.12 71.8,16.12 71.68,16.48 L69.568,22.96 C69.52,23.08 69.568,23.128 69.64,23.128 Z M84.52,25.144 L84.52,21.544 C84.52,18.376 84.52,17.8 84.472,17.152 C84.424,16.456 84.304,16.12 83.608,16.024 C83.44,16 83.08,15.976 82.888,15.976 C82.816,15.976 82.72,15.88 82.72,15.808 C82.72,15.688 82.816,15.64 83.056,15.64 C84.016,15.64 85.336,15.688 85.504,15.688 C85.96,15.688 87.544,15.64 88.504,15.64 C91.216,15.64 92.176,16.48 92.536,16.792 C93.016,17.224 93.592,18.136 93.592,19.24 C93.592,22.168 91.384,24.112 88.144,24.112 C88.024,24.112 87.664,24.112 87.544,24.088 C87.448,24.088 87.328,23.992 87.328,23.896 C87.328,23.728 87.448,23.68 87.88,23.68 C90.16,23.68 91.792,22.24 91.792,20.392 C91.792,19.72 91.72,18.4 90.592,17.296 C89.488,16.192 88.216,16.312 87.736,16.312 C87.376,16.312 86.776,16.408 86.56,16.456 C86.44,16.48 86.392,16.624 86.392,16.84 L86.392,25.144 C86.392,27.112 86.392,28.72 86.488,29.56 C86.56,30.16 86.68,30.544 87.328,30.64 C87.616,30.688 88.072,30.736 88.264,30.736 C88.384,30.736 88.432,30.832 88.432,30.904 C88.432,31 88.336,31.072 88.096,31.072 C86.944,31.072 85.552,31 85.456,31 C85.384,31 84.016,31.072 83.368,31.072 C83.152,31.072 83.032,31.024 83.032,30.904 C83.032,30.832 83.08,30.736 83.2,30.736 C83.392,30.736 83.656,30.688 83.848,30.64 C84.256,30.544 84.304,30.16 84.4,29.56 C84.52,28.72 84.52,27.112 84.52,25.144 Z M96.184,23.32 C96.184,20.032 98.728,15.352 104.56,15.352 C109.312,15.352 112.912,18.256 112.912,23.008 C112.912,27.568 109.528,31.336 104.44,31.336 C98.656,31.336 96.184,26.992 96.184,23.32 Z M98.368,22.768 C98.368,27.52 101.224,30.496 105.04,30.496 C106.936,30.496 110.752,29.488 110.752,23.584 C110.752,18.688 107.776,16.12 104.44,16.12 C100.912,16.12 98.368,18.328 98.368,22.768 Z M119.248,21.544 L119.248,25.192 C119.248,28.192 119.296,29.416 119.68,29.776 C120.016,30.112 120.832,30.256 122.488,30.256 C123.592,30.256 124.528,30.232 125.032,29.632 C125.296,29.32 125.464,28.888 125.536,28.48 C125.56,28.336 125.632,28.216 125.752,28.216 C125.848,28.216 125.896,28.312 125.896,28.528 C125.896,28.744 125.752,29.968 125.584,30.568 C125.44,31.048 125.368,31.12 124.24,31.12 C122.728,31.12 121.552,31.096 120.568,31.048 C119.608,31.024 118.888,31 118.264,31 C118.168,31 117.808,31 117.4,31.024 C116.968,31.048 116.512,31.072 116.176,31.072 C115.96,31.072 115.84,31.024 115.84,30.904 C115.84,30.832 115.888,30.736 116.008,30.736 C116.2,30.736 116.464,30.688 116.656,30.64 C117.064,30.544 117.112,30.16 117.208,29.56 C117.328,28.72 117.328,27.112 117.328,25.144 L117.328,21.544 C117.328,18.376 117.328,17.8 117.28,17.152 C117.232,16.456 117.112,16.12 116.416,16.024 C116.248,16 115.888,15.976 115.696,15.976 C115.624,15.976 115.528,15.88 115.528,15.808 C115.528,15.688 115.624,15.64 115.864,15.64 C116.824,15.64 118.144,15.688 118.264,15.688 C118.36,15.688 119.944,15.64 120.592,15.64 C120.808,15.64 120.928,15.688 120.928,15.808 C120.928,15.88 120.832,15.952 120.76,15.952 C120.616,15.952 120.304,15.976 120.064,16 C119.44,16.12 119.32,16.432 119.272,17.152 C119.248,17.8 119.248,18.376 119.248,21.544 Z M132.088,21.544 L132.088,25.192 C132.088,28.192 132.136,29.416 132.52,29.776 C132.856,30.112 133.672,30.256 135.328,30.256 C136.432,30.256 137.368,30.232 137.872,29.632 C138.136,29.32 138.304,28.888 138.376,28.48 C138.4,28.336 138.472,28.216 138.592,28.216 C138.688,28.216 138.736,28.312 138.736,28.528 C138.736,28.744 138.592,29.968 138.424,30.568 C138.28,31.048 138.208,31.12 137.08,31.12 C135.568,31.12 134.392,31.096 133.408,31.048 C132.448,31.024 131.728,31 131.104,31 C131.008,31 130.648,31 130.24,31.024 C129.808,31.048 129.352,31.072 129.016,31.072 C128.8,31.072 128.68,31.024 128.68,30.904 C128.68,30.832 128.728,30.736 128.848,30.736 C129.04,30.736 129.304,30.688 129.496,30.64 C129.904,30.544 129.952,30.16 130.048,29.56 C130.168,28.72 130.168,27.112 130.168,25.144 L130.168,21.544 C130.168,18.376 130.168,17.8 130.12,17.152 C130.072,16.456 129.952,16.12 129.256,16.024 C129.088,16 128.728,15.976 128.536,15.976 C128.464,15.976 128.368,15.88 128.368,15.808 C128.368,15.688 128.464,15.64 128.704,15.64 C129.664,15.64 130.984,15.688 131.104,15.688 C131.2,15.688 132.784,15.64 133.432,15.64 C133.648,15.64 133.768,15.688 133.768,15.808 C133.768,15.88 133.672,15.952 133.6,15.952 C133.456,15.952 133.144,15.976 132.904,16 C132.28,16.12 132.16,16.432 132.112,17.152 C132.088,17.8 132.088,18.376 132.088,21.544 Z M140.08,23.32 C140.08,20.032 142.624,15.352 148.456,15.352 C153.208,15.352 156.808,18.256 156.808,23.008 C156.808,27.568 153.424,31.336 148.336,31.336 C142.552,31.336 140.08,26.992 140.08,23.32 Z M142.264,22.768 C142.264,27.52 145.12,30.496 148.936,30.496 C150.832,30.496 154.648,29.488 154.648,23.584 C154.648,18.688 151.672,16.12 148.336,16.12 C144.808,16.12 142.264,18.328 142.264,22.768 Z M70.18,45.204 C68.38,45.204 67.168,44.76 66.22,43.908 C65.056,42.864 64.768,41.496 64.768,40.356 C64.768,39.552 65.044,38.148 66.112,37.08 C66.832,36.36 67.924,35.796 69.772,35.796 C70.252,35.796 70.924,35.832 71.512,35.94 C71.968,36.024 72.352,36.096 72.736,36.12 C72.868,36.132 72.892,36.18 72.892,36.252 C72.892,36.348 72.856,36.492 72.832,36.924 C72.808,37.32 72.808,37.98 72.796,38.16 C72.784,38.34 72.76,38.412 72.688,38.412 C72.604,38.412 72.592,38.328 72.592,38.16 C72.592,37.692 72.4,37.2 72.088,36.936 C71.668,36.576 70.744,36.252 69.688,36.252 C68.092,36.252 67.348,36.72 66.928,37.128 C66.052,37.968 65.848,39.036 65.848,40.26 C65.848,42.552 67.612,44.652 70.18,44.652 C71.08,44.652 71.788,44.544 72.268,44.052 C72.52,43.788 72.676,43.26 72.712,43.044 C72.736,42.912 72.76,42.864 72.832,42.864 C72.892,42.864 72.916,42.948 72.916,43.044 C72.916,43.128 72.772,44.172 72.652,44.58 C72.58,44.808 72.556,44.832 72.34,44.928 C71.86,45.12 70.948,45.204 70.18,45.204 Z M76.48,40.272 L76.48,42.096 C76.48,43.596 76.504,44.208 76.696,44.388 C76.864,44.556 77.272,44.628 78.1,44.628 C78.652,44.628 79.12,44.616 79.372,44.316 C79.504,44.16 79.588,43.944 79.624,43.74 C79.636,43.668 79.672,43.608 79.732,43.608 C79.78,43.608 79.804,43.656 79.804,43.764 C79.804,43.872 79.732,44.484 79.648,44.784 C79.576,45.024 79.54,45.06 78.976,45.06 C78.22,45.06 77.632,45.048 77.14,45.024 C76.66,45.012 76.3,45 75.988,45 C75.94,45 75.76,45 75.556,45.012 C75.34,45.024 75.112,45.036 74.944,45.036 C74.836,45.036 74.776,45.012 74.776,44.952 C74.776,44.916 74.8,44.868 74.86,44.868 C74.956,44.868 75.088,44.844 75.184,44.82 C75.388,44.772 75.412,44.58 75.46,44.28 C75.52,43.86 75.52,43.056 75.52,42.072 L75.52,40.272 C75.52,38.688 75.52,38.4 75.496,38.076 C75.472,37.728 75.412,37.56 75.064,37.512 C74.98,37.5 74.8,37.488 74.704,37.488 C74.668,37.488 74.62,37.44 74.62,37.404 C74.62,37.344 74.668,37.32 74.788,37.32 C75.268,37.32 75.928,37.344 75.988,37.344 C76.036,37.344 76.828,37.32 77.152,37.32 C77.26,37.32 77.32,37.344 77.32,37.404 C77.32,37.44 77.272,37.476 77.236,37.476 C77.164,37.476 77.008,37.488 76.888,37.5 C76.576,37.56 76.516,37.716 76.492,38.076 C76.48,38.4 76.48,38.688 76.48,40.272 Z M81.34,41.772 L81.34,40.272 C81.34,38.688 81.34,38.4 81.316,38.076 C81.292,37.752 81.232,37.56 80.884,37.512 C80.8,37.5 80.62,37.488 80.524,37.488 C80.488,37.488 80.44,37.44 80.44,37.404 C80.44,37.344 80.488,37.32 80.608,37.32 C81.088,37.32 81.724,37.344 81.82,37.344 C81.916,37.344 82.576,37.32 82.888,37.32 C83.008,37.32 83.068,37.344 83.068,37.404 C83.068,37.44 83.02,37.488 82.972,37.488 C82.9,37.488 82.84,37.488 82.708,37.512 C82.432,37.56 82.372,37.74 82.348,38.076 C82.324,38.4 82.324,38.688 82.324,40.272 L82.324,41.7 C82.324,43.176 82.648,43.788 83.104,44.196 C83.62,44.664 84.076,44.748 84.676,44.748 C85.324,44.748 85.948,44.46 86.308,44.028 C86.8,43.44 86.908,42.6 86.908,41.556 L86.908,40.272 C86.908,38.688 86.896,38.4 86.884,38.076 C86.872,37.752 86.812,37.56 86.464,37.512 C86.38,37.5 86.2,37.488 86.104,37.488 C86.056,37.488 86.02,37.44 86.02,37.404 C86.02,37.344 86.068,37.32 86.188,37.32 C86.656,37.32 87.268,37.344 87.328,37.344 C87.4,37.344 87.904,37.32 88.216,37.32 C88.336,37.32 88.384,37.344 88.384,37.404 C88.384,37.44 88.348,37.488 88.3,37.488 C88.228,37.488 88.168,37.488 88.036,37.512 C87.748,37.572 87.688,37.74 87.664,38.076 C87.64,38.4 87.652,38.688 87.652,40.272 L87.652,41.364 C87.652,42.468 87.508,43.704 86.668,44.424 C85.9,45.084 85.084,45.168 84.46,45.168 C84.112,45.168 83.008,45.144 82.264,44.448 C81.748,43.968 81.34,43.26 81.34,41.772 Z M90.664,42.072 L90.664,40.272 C90.664,38.688 90.664,38.4 90.64,38.076 C90.616,37.728 90.556,37.536 90.208,37.488 C90.124,37.476 89.944,37.464 89.848,37.464 C89.812,37.464 89.764,37.44 89.764,37.404 C89.764,37.344 89.812,37.32 89.932,37.32 C90.412,37.32 91.096,37.344 91.156,37.344 C91.408,37.344 91.9,37.32 92.392,37.32 C94.156,37.32 94.612,38.34 94.612,38.88 C94.612,39.684 94.084,40.188 93.544,40.668 C94.348,40.908 95.404,41.64 95.404,42.792 C95.404,43.932 94.552,45.06 92.752,45.06 C92.56,45.06 92.176,45.048 91.84,45.024 C91.504,45.012 91.204,45 91.156,45 C91.132,45 90.94,45.012 90.724,45.012 C90.508,45.024 90.256,45.036 90.088,45.036 C89.98,45.036 89.92,45.012 89.92,44.952 C89.92,44.916 89.944,44.892 90.004,44.892 C90.1,44.892 90.232,44.856 90.328,44.844 C90.532,44.808 90.556,44.58 90.604,44.28 C90.664,43.86 90.664,43.056 90.664,42.072 Z M91.576,37.8 L91.576,40.488 C91.576,40.56 91.6,40.584 91.648,40.596 C91.708,40.608 91.9,40.644 92.296,40.644 C92.884,40.644 93.112,40.62 93.328,40.38 C93.556,40.128 93.736,39.78 93.736,39.288 C93.736,38.508 93.304,37.644 92.248,37.644 C92.128,37.644 91.876,37.656 91.708,37.692 C91.612,37.716 91.576,37.74 91.576,37.8 Z M91.576,41.052 L91.576,41.616 C91.576,42.408 91.576,43.632 91.588,43.788 C91.624,44.28 91.624,44.4 91.948,44.556 C92.236,44.688 92.68,44.7 92.872,44.7 C93.568,44.7 94.42,44.436 94.42,43.128 C94.42,42.672 94.24,41.796 93.412,41.268 C93.052,41.04 92.716,41.052 92.464,41.004 C92.332,40.98 91.804,40.98 91.636,40.98 C91.6,40.98 91.576,41.004 91.576,41.052 Z" id="Apollo-Club" fill="#AFA172"></path>
            <path d="M7.09231108,28.782845 L7.13196739,29.5671587 C7.13196739,29.5671587 7.16427994,30.3514724 7.18924873,30.3485349 L7.30968642,31.1225674 L7.4271866,31.8965998 C7.4271866,31.8965998 7.44921789,32.0919439 7.49034295,32.2828817 C7.54028053,32.4723507 7.59021811,32.660351 7.59021811,32.660351 L6.47543512,32.9144452 L3.13108614,33.6737901 L3.36755526,34.5991041 L3.60843064,35.5229493 L3.92714989,36.4232944 L4.2561504,37.3192333 L5.32099581,36.9021077 L5.00668282,36.0458251 L4.69971359,35.186605 L4.47205699,34.3038848 L7.78556216,33.4182272 L7.97796872,34.1775722 L8.24381288,34.9134171 L8.51259455,35.6477932 C8.51259455,35.6477932 8.77990747,36.3836381 8.80193875,36.3733568 L9.14415804,37.0783579 L9.48197107,37.7848278 L8.47146949,38.3194536 L7.46096791,38.8540795 L6.45046633,39.3887053 L5.4414335,39.9247999 C5.41940222,39.9365499 5.91290299,40.7531762 5.91290299,40.7531762 L6.40787251,41.5683337 C6.40787251,41.5683337 6.89549827,42.3893662 6.91459205,42.3761475 L7.4859367,43.1413674 L8.40390688,42.4613351 L7.85899978,41.7313652 C7.839906,41.744584 7.37578027,40.9602703 7.37578027,40.9602703 L6.90137328,40.1803628 L9.87119042,38.4633913 L10.2780348,39.1331424 C10.2780348,39.1331424 10.6716604,39.8102372 10.6907542,39.7970184 L11.1622237,40.4241757 L11.6307557,41.0528016 C11.6307557,41.0528016 11.7497246,41.2070206 11.8672248,41.3641771 C12.0008813,41.5081149 12.133069,41.6520526 12.133069,41.6520526 L12.660351,42.2322097 L9.31012705,45.3430271 L9.9519718,46.0480282 L10.6569729,46.689873 L11.3634428,47.3317177 C11.3634428,47.3317177 11.539693,47.4918117 11.7174121,47.6519057 C11.9054124,47.7973122 12.0948814,47.9427187 12.0948814,47.9427187 L12.808695,47.0497173 C12.808695,47.0497173 12.6280385,46.9101858 12.4473819,46.7721231 C12.2784754,46.6179041 12.1095689,46.4651539 12.1095689,46.4651539 L11.4354116,45.8526841 L10.7612543,45.2387457 L13.1861644,42.8138356 L13.7677903,43.339649 L14.3479474,43.866931 C14.3479474,43.866931 14.4918851,43.9991187 14.6358229,44.1327752 C14.7915106,44.2502754 14.9471984,44.3692443 14.9471984,44.3692443 L15.5758243,44.8377763 L16.2029816,45.3092458 C16.1897628,45.3283396 16.8668576,45.7219652 16.8668576,45.7219652 L14.4316663,49.5921275 L15.2468238,50.087097 C15.2468238,50.087097 16.0634501,50.5805978 16.0752001,50.5585665 L16.9344202,50.9742234 L17.7951091,51.3884115 L18.2533598,50.3397224 L17.4323272,49.944628 L16.609826,49.5495337 C16.5980759,49.5700962 15.8196372,49.097158 15.8196372,49.097158 L17.5366087,46.1288096 C17.5366087,46.1288096 18.2034222,46.5400602 18.2151722,46.5180289 L18.9216421,46.855842 L19.6266432,47.1980612 C19.6163619,47.2200925 20.3522068,47.4874054 20.3522068,47.4874054 L21.0865829,47.7561871 L21.8224278,48.0220313 L20.475582,52.3915694 L21.4008959,52.6324447 L22.3247411,52.8689139 C22.3247411,52.8689139 22.556804,52.9276639 22.7873981,52.986414 C23.0209297,53.0363516 23.2573988,53.0671954 23.2573988,53.0671954 L24.2018066,53.2111331 L24.3707131,52.0816626 L23.4688992,51.9435999 C23.4688992,51.9435999 23.2427113,51.9156936 23.0209297,51.8672248 C22.7991481,51.8114122 22.5788353,51.7541309 22.5788353,51.7541309 L21.6961152,51.527943 L22.5817728,48.2144378 L23.3381802,48.4097819 C23.3381802,48.4097819 23.5276493,48.4597195 23.7171183,48.509657 C23.9080561,48.5507821 24.1034002,48.5728134 24.1034002,48.5728134 L24.8774326,48.6888448 L25.6514651,48.8092825 C25.6485276,48.8357201 26.4328413,48.8680326 26.4328413,48.8680326 L27.2156863,48.9076889 L27.0467798,53.4769773 L28,53.5225086 L28.9517515,53.4769773 L29.9049717,53.4285085 C29.9049717,53.4285085 30.8567232,53.3800397 30.8552545,53.3550709 L30.727473,52.2182566 C30.7304105,52.2446941 29.8197841,52.2887567 29.8197841,52.2887567 L28.9106264,52.334288 L28,52.3798193 L28,48.9502827 L28.782845,48.9076889 L29.5671587,48.8680326 C29.5671587,48.8680326 30.3514724,48.8357201 30.3485349,48.8092825 L31.1225674,48.6888448 L31.8965998,48.5728134 C31.8965998,48.5728134 32.0919439,48.5507821 32.2828817,48.509657 C32.4723507,48.4597195 32.6618198,48.4097819 32.6618198,48.4097819 L33.6737901,52.8689139 L34.5991041,52.6324447 L35.5229493,52.3915694 L36.4232944,52.0713814 L37.3192333,51.7438496 L36.9021077,50.6804729 L36.0458251,50.9933172 L35.186605,51.3002864 L34.3038848,51.527943 L33.4182272,48.2144378 L34.1775722,48.0220313 L34.9134171,47.7561871 L35.6477932,47.4874054 C35.6477932,47.4874054 36.3836381,47.2200925 36.3733568,47.1980612 L37.0783579,46.855842 L37.7848278,46.5180289 L39.9247999,50.5585665 C39.9365499,50.5805978 40.7531762,50.087097 40.7531762,50.087097 L41.5683337,49.5921275 C41.5683337,49.5921275 42.3893662,49.1045017 42.3761475,49.0854079 L43.1413674,48.5140633 L42.4613351,47.5960931 L41.7313652,48.1410002 C41.744584,48.160094 40.9602703,48.6242197 40.9602703,48.6242197 L40.1803628,49.097158 L38.4633913,46.1288096 L39.1331424,45.7219652 C39.1331424,45.7219652 39.8102372,45.3283396 39.7970184,45.3092458 L40.4241757,44.8377763 L41.0528016,44.3692443 C41.0528016,44.3692443 41.2084894,44.2502754 41.3641771,44.1327752 C41.5081149,43.9991187 41.6520526,43.866931 41.6520526,43.866931 L42.2322097,43.339649 L43.0091797,44.1768378 L45.3430271,46.689873 L46.0480282,46.0480282 L46.689873,45.3430271 L47.3317177,44.6365572 C47.3317177,44.6365572 47.4918117,44.460307 47.6519057,44.2825879 C47.7973122,44.0945876 47.9427187,43.9051186 47.9427187,43.9051186 L47.0497173,43.191305 C47.0497173,43.191305 46.9101858,43.3719615 46.7721231,43.5526181 C46.6179041,43.7215246 46.4651539,43.8904311 46.4651539,43.8904311 L45.8526841,44.5645884 L45.2387457,45.2387457 L42.8138356,42.8138356 L43.339649,42.2322097 L43.866931,41.6520526 C43.866931,41.6520526 43.9991187,41.5081149 44.1327752,41.3641771 C44.2502754,41.2084894 44.3692443,41.0528016 44.3692443,41.0528016 L44.8377763,40.4241757 L45.3092458,39.7970184 C45.3283396,39.8102372 45.7219652,39.1331424 45.7219652,39.1331424 L47.6577807,40.350738 L48.6242197,40.9602703 L49.5921275,41.5683337 L50.087097,40.7531762 C50.087097,40.7531762 50.5805978,39.9365499 50.5585665,39.9247999 L50.9742234,39.0655798 L51.3884115,38.2048909 L50.3397224,37.7466402 L49.944628,38.5676728 L49.5495337,39.3887053 C49.5700962,39.4019241 49.097158,40.1803628 49.097158,40.1803628 L46.1288096,38.4633913 C46.1288096,38.4633913 46.5400602,37.7965778 46.5180289,37.7848278 L46.855842,37.0783579 L47.1980612,36.3733568 C47.2200925,36.3836381 47.4874054,35.6477932 47.4874054,35.6477932 L47.7561871,34.9134171 L48.0220313,34.1775722 L49.114783,34.5139164 L51.3002864,35.186605 L52.3915694,35.5229493 L52.6324447,34.5991041 L52.8689139,33.6752589 C52.8689139,33.6752589 52.9276639,33.443196 52.986414,33.2126019 C53.0363516,32.9790703 53.0671954,32.7411324 53.0671954,32.7411324 L53.2111331,31.7981934 L52.0816626,31.6292869 L51.9435999,32.5311008 C51.9435999,32.5311008 51.9156936,32.7572887 51.8672248,32.9790703 C51.8114122,33.2008519 51.7541309,33.4211647 51.7541309,33.4211647 L51.527943,34.3038848 L48.2144378,33.4182272 L48.4097819,32.660351 C48.4097819,32.660351 48.4597195,32.4723507 48.509657,32.2828817 C48.5507821,32.0919439 48.5728134,31.8965998 48.5728134,31.8965998 L48.6888448,31.1225674 L48.8092825,30.3485349 C48.8357201,30.3514724 48.8680326,29.5671587 48.8680326,29.5671587 L48.9076889,28.782845 L50.0503782,28.8254388 L51.1915987,28.8680326 L52.334288,28.9106264 L53.4769773,28.9532202 L53.5225086,28 L54.6666667,28 L54.6196666,28.9943453 L54.5682603,29.9886906 L53.4285085,29.9049717 L52.2887567,29.8197841 L50.0092531,29.6508776 C50.0092531,29.6508776 49.9710656,30.4777851 49.9460968,30.4748476 L49.8197841,31.2914739 L49.6964089,32.1081002 C49.6964089,32.1081002 49.6729089,32.3137255 49.6288463,32.5149446 C49.57744,32.7146949 49.5245649,32.9144452 49.5245649,32.9144452 L50.6393479,33.1670706 C50.6393479,33.1670706 50.6936917,32.957039 50.7480355,32.7470074 C50.7935669,32.5355071 50.8200044,32.3196005 50.8200044,32.3196005 L50.9507234,31.4603804 L51.0814423,30.6011603 L52.2182566,30.727473 L53.3550709,30.8552545 L54.4904164,30.9815672 L54.3420724,31.9670999 L54.1907909,32.9526327 C54.1907909,32.9526327 54.1584784,33.2008519 54.1056033,33.4446648 C54.0453844,33.6855401 53.9836968,33.9278843 53.9836968,33.9278843 L53.7354777,34.8943233 L53.4843211,35.8607623 L53.1509143,36.8007638 L52.0713814,36.4232944 L50.9933172,36.0458251 L48.8357201,35.2908864 L48.5522509,36.0663876 C48.5522509,36.0663876 48.2673129,36.8404201 48.2452816,36.8316075 L47.8854373,37.5747962 L47.5285305,38.3194536 L48.5390321,38.8540795 L48.9150327,38.0712345 L49.292502,37.2883895 C49.3145333,37.2986708 49.6156275,36.4835133 49.6156275,36.4835133 L50.6790042,36.9021077 L52.8072263,37.7378277 C52.8072263,37.7378277 52.4576632,38.6719542 52.4356319,38.6616729 L52.0038188,39.5620181 L51.5690681,40.4594257 C51.5910994,40.4711757 51.0770361,41.3259896 51.0770361,41.3259896 L50.5600353,42.1778659 C50.5600353,42.1778659 50.0489095,43.0341485 50.0283469,43.0209297 L46.2536535,40.4418007 L45.7572152,41.1027392 L45.2622457,41.7651465 C45.2622457,41.7651465 45.1374018,41.9296468 45.0125578,42.0926783 C44.8730264,42.2454285 44.7334949,42.3981787 44.7334949,42.3981787 L44.1768378,43.0091797 L45.0154953,43.7876184 L45.59859,43.1443049 C45.59859,43.1443049 45.7454652,42.9842109 45.8923405,42.8226482 C46.0245282,42.6508041 46.1567159,42.4789601 46.1567159,42.4789601 L46.6766542,41.7827715 L48.5140633,43.1413674 L49.4335022,43.8213997 L48.8357201,44.6189322 C48.8357201,44.6189322 48.6844386,44.815745 48.5316883,45.0125578 C48.3642506,45.1976206 48.1982816,45.3826834 48.1982816,45.3826834 L47.5285305,46.1199971 L46.855842,46.855842 L46.1199971,47.5285305 L45.3826834,48.1982816 L42.3981787,44.7334949 C42.3981787,44.7334949 42.2454285,44.8730264 42.094147,45.0125578 C41.9296468,45.1374018 41.7651465,45.2622457 41.7651465,45.2622457 L41.1027392,45.7572152 L40.4418007,46.2536535 C40.4550195,46.2727473 39.7412058,46.689873 39.7412058,46.689873 L40.350738,47.6577807 C40.350738,47.6577807 41.0998017,47.2156863 41.0865829,47.1965925 L41.7827715,46.6766542 L42.4789601,46.1567159 L44.6189322,48.8357201 L43.8213997,49.4335022 L43.0209297,50.0283469 C43.0341485,50.0489095 42.1778659,50.5585665 42.1778659,50.5585665 L41.3259896,51.0770361 C41.3259896,51.0770361 40.4711757,51.5910994 40.4594257,51.5690681 L39.5620181,52.0038188 L37.5747962,47.8854373 L36.8316075,48.2452816 C36.8404201,48.2673129 36.0663876,48.5522509 36.0663876,48.5522509 L35.2908864,48.8357201 L34.5139164,49.114783 L34.8502607,50.2075347 L35.6683557,49.9137842 L36.4835133,49.6156275 C36.4835133,49.6156275 37.2986708,49.3145333 37.2883895,49.292502 L38.6616729,52.4356319 C38.6719542,52.4576632 37.7378277,52.8072263 37.7378277,52.8072263 L36.8007638,53.1509143 L35.8607623,53.4843211 L34.8943233,53.7354777 L33.9278843,53.9836968 C33.9278843,53.9836968 33.6855401,54.0453844 33.4446648,54.1056033 C33.2008519,54.1584784 32.9526327,54.1907909 32.9526327,54.1907909 L32.1081002,49.6964089 L31.2914739,49.8197841 L30.4748476,49.9460968 C30.4777851,49.9710656 29.6508776,50.0077844 29.6508776,50.0077844 L28.8254388,50.0503782 L28.8680326,51.1915987 L29.7360652,51.1490049 C29.7360652,51.1490049 30.6040978,51.1078799 30.6011603,51.0814423 L31.4603804,50.9507234 L31.9670999,54.3420724 L30.9815672,54.4904164 C30.9830359,54.5168539 29.9886906,54.5682603 29.9886906,54.5682603 L28.9943453,54.6196666 L28,54.6666667 L27.0056547,54.6196666 L26.0113094,54.5682603 L26.3491224,50.0077844 C26.3491224,50.0077844 25.5222149,49.9710656 25.5251524,49.9460968 L24.7085261,49.8197841 L23.8918998,49.6964089 C23.8918998,49.6964089 23.6862745,49.6729089 23.4850554,49.6288463 C23.2853051,49.57744 23.0855548,49.5245649 23.0855548,49.5245649 L22.8314607,50.6393479 C22.8314607,50.6393479 23.042961,50.6936917 23.2529926,50.7480355 C23.4644929,50.7935669 23.6803995,50.8200044 23.6803995,50.8200044 L24.5396196,50.9507234 L25.3988397,51.0814423 L25.0184328,54.4904164 L24.0329001,54.3420724 L23.0473673,54.1907909 C23.0473673,54.1907909 22.7991481,54.1584784 22.5553352,54.1056033 C22.3129911,54.0453844 22.0721157,53.9836968 22.0721157,53.9836968 L21.1056767,53.7354777 L20.1392377,53.4843211 L19.1992362,53.1509143 L20.7091136,48.8357201 L19.9336124,48.5522509 C19.9336124,48.5522509 19.1595799,48.2673129 19.1683925,48.2452816 L18.4252038,47.8854373 L17.6805464,47.5285305 L17.1459205,48.5390321 L17.9287655,48.9150327 L18.7101417,49.292502 C18.7013292,49.3145333 19.5164867,49.6156275 19.5164867,49.6156275 L18.2621723,52.8072263 C18.2621723,52.8072263 17.3280458,52.4576632 17.3383271,52.4356319 L16.4379819,52.0038188 L15.5405743,51.5690681 C15.5288243,51.5910994 14.6740104,51.0770361 14.6740104,51.0770361 L13.8221341,50.5585665 C13.8221341,50.5585665 12.9643828,50.0489095 12.9790703,50.0283469 L15.5581993,46.2536535 L14.8972608,45.7572152 L14.2348535,45.2622457 C14.2348535,45.2622457 14.0703532,45.1374018 13.9073217,45.0125578 C13.7545715,44.8730264 13.6018213,44.7334949 13.6018213,44.7334949 L12.9908203,44.1768378 L12.2123816,45.0154953 L12.8556951,45.59859 C12.8556951,45.59859 13.0157891,45.7454652 13.1773518,45.8923405 C13.3491959,46.0245282 13.5210399,46.1567159 13.5210399,46.1567159 L14.2172285,46.6766542 L12.1786003,49.4335022 L11.3810678,48.8357201 C11.3810678,48.8357201 11.184255,48.6829698 10.9874422,48.5316883 C10.8023794,48.3642506 10.6173166,48.1982816 10.6173166,48.1982816 L9.88000294,47.5285305 L9.14415804,46.855842 L8.47146949,46.1199971 L7.80171844,45.3826834 L11.2665051,42.3981787 C11.2665051,42.3981787 11.1269736,42.2454285 10.9874422,42.0926783 C10.8625982,41.9296468 10.7377543,41.7651465 10.7377543,41.7651465 L10.2427848,41.1027392 L9.74634648,40.4418007 C9.7272527,40.4550195 9.31012705,39.7412058 9.31012705,39.7412058 L8.34221928,40.350738 C8.34221928,40.350738 8.78284497,41.0998017 8.80340751,41.0865829 L9.32334582,41.7827715 L9.84328413,42.4789601 L7.16427994,44.6189322 L6.56649776,43.8213997 L5.97165308,43.0209297 C5.95109055,43.0341485 5.43996475,42.1778659 5.43996475,42.1778659 L4.92296394,41.3259896 C4.92296394,41.3259896 4.40890064,40.4711757 4.43093192,40.4594257 L3.99618124,39.5620181 L5.0257766,39.0655798 L6.05537196,38.5676728 L7.08496732,38.0712345 L8.11456268,37.5747962 L7.75471837,36.8316075 C7.73268708,36.8404201 7.44774914,36.0663876 7.44774914,36.0663876 L7.16427994,35.2908864 L6.88521701,34.5139164 L5.7924653,34.8502607 L6.08621576,35.6683557 L6.38437248,36.4835133 C6.38437248,36.4835133 6.6854667,37.2986708 6.70749798,37.2883895 L4.61158846,38.2048909 L3.56436807,38.6616729 C3.54233678,38.6719542 3.19277374,37.7378277 3.19277374,37.7378277 L2.8490857,36.8007638 L2.51567893,35.8607623 L2.26452229,34.8943233 L2.01630315,33.9278843 C2.01630315,33.9278843 1.95461555,33.6855401 1.89439671,33.4446648 C1.84152163,33.2008519 1.80920908,32.9526327 1.80920908,32.9526327 L6.3035911,32.1081002 L6.18021591,31.2914739 L6.05390321,30.4748476 C6.02893442,30.4777851 5.99074686,29.6508776 5.99074686,29.6508776 L5.9496218,28.8254388 L4.80840126,28.8680326 L4.85099508,29.7360652 C4.85099508,29.7360652 4.89212014,30.6040978 4.91855769,30.6011603 L5.04927664,31.4603804 L3.91833737,31.6292869 L2.78886686,31.7981934 L1.65792759,31.9670999 L1.50958361,30.9815672 C1.48314607,30.9830359 1.43173974,29.9886906 1.43173974,29.9886906 L1.38033341,28.9943453 L1.33333333,28 L2.47749137,28 L2.52302269,28.9517515 L2.57149152,29.9049717 C2.57149152,29.9049717 2.61996034,30.8567232 2.64492913,30.8552545 L3.78174341,30.727473 C3.75530587,30.7304105 3.7112433,29.8197841 3.7112433,29.8197841 L3.66571198,28.9106264 L3.62018066,28 L7.04971727,28 L7.09231108,28.782845" id="Fill-7" fill="#AFA172"></path>
            <path d="M48.9076889,27.217155 L48.8680326,26.4328413 C48.8680326,26.4328413 48.8357201,25.6485276 48.8092825,25.6514651 L48.6888448,24.8774326 L48.5728134,24.1034002 C48.5728134,24.1034002 48.5507821,23.9080561 48.509657,23.7171183 C48.4597195,23.5276493 48.4097819,23.3381802 48.4097819,23.3381802 L50.6393479,22.8314607 L51.7541309,22.5788353 L52.8689139,22.3247411 L52.6324447,21.4008959 L52.3915694,20.475582 L52.0713814,19.5767056 L51.7438496,18.6807667 L50.6790042,19.0978923 L50.9933172,19.9541749 L51.3002864,20.813395 L51.527943,21.6961152 L48.2144378,22.5817728 L48.0220313,21.8224278 L47.7561871,21.0865829 L47.4874054,20.3522068 C47.4874054,20.3522068 47.2200925,19.6163619 47.1980612,19.6266432 L46.855842,18.9216421 L46.5180289,18.2151722 L47.5285305,17.6805464 L48.5390321,17.1459205 L49.5495337,16.609826 L50.5585665,16.0752001 C50.5805978,16.0634501 50.087097,15.2468238 50.087097,15.2468238 L49.5921275,14.4316663 C49.5921275,14.4316663 49.1045017,13.6106338 49.0854079,13.6238525 L48.5140633,12.8586326 L47.5960931,13.5371962 L48.1410002,14.2686348 C48.160094,14.255416 48.6242197,15.0397297 48.6242197,15.0397297 L49.097158,15.8196372 L46.1288096,17.5366087 L45.7219652,16.8668576 C45.7219652,16.8668576 45.3283396,16.1897628 45.3092458,16.2029816 L44.8377763,15.5758243 L44.3692443,14.9471984 C44.3692443,14.9471984 44.2502754,14.7915106 44.1327752,14.6358229 C43.9991187,14.4918851 43.866931,14.3479474 43.866931,14.3479474 L43.339649,13.7677903 L46.689873,10.6569729 L46.0480282,9.9519718 L45.3430271,9.31012705 L44.6365572,8.66828229 C44.6365572,8.66828229 44.460307,8.50818829 44.2825879,8.34809429 C44.0945876,8.20268782 43.9051186,8.05728134 43.9051186,8.05728134 L43.191305,8.95028273 C43.191305,8.95028273 43.3719615,9.0898142 43.5526181,9.22787692 C43.7215246,9.38062716 43.8904311,9.53484615 43.8904311,9.53484615 L44.5645884,10.1473159 L45.2387457,10.7612543 L42.8138356,13.1861644 L42.2322097,12.660351 L41.6520526,12.133069 C41.6520526,12.133069 41.5081149,12.0008813 41.3641771,11.8672248 C41.2084894,11.7497246 41.0528016,11.6307557 41.0528016,11.6307557 L40.4241757,11.1622237 L39.7970184,10.6907542 C39.8102372,10.6716604 39.1331424,10.2780348 39.1331424,10.2780348 L41.5683337,6.40787251 L40.7531762,5.91290299 C40.7531762,5.91290299 39.9365499,5.41940222 39.9247999,5.4414335 L39.0655798,5.0257766 L38.2048909,4.61158846 L37.7466402,5.66027759 L38.5676728,6.05537196 L39.390174,6.45046633 C39.4019241,6.4299038 40.1803628,6.90137328 40.1803628,6.90137328 L38.4633913,9.87119042 C38.4633913,9.87119042 37.7965778,9.45993978 37.7848278,9.48197107 L37.0783579,9.14415804 L36.3733568,8.80193875 C36.3836381,8.77990747 35.6477932,8.51259455 35.6477932,8.51259455 L34.9134171,8.24381288 L34.1775722,7.97796872 L35.5229493,3.60843064 L34.5991041,3.36755526 L33.6737901,3.13108614 C33.6737901,3.13108614 33.443196,3.07233605 33.2126019,3.01358596 C32.9790703,2.96364838 32.7411324,2.93280458 32.7411324,2.93280458 L31.7981934,2.78886686 L31.6292869,3.91833737 L32.5311008,4.05640009 C32.5311008,4.05640009 32.7572887,4.08430638 32.9790703,4.13277521 C33.2008519,4.18858779 33.4211647,4.24586913 33.4211647,4.24586913 L34.3038848,4.47205699 L33.4182272,7.78556216 L32.6618198,7.59021811 C32.6618198,7.59021811 32.4723507,7.54028053 32.2828817,7.49034295 C32.0919439,7.44921789 31.8965998,7.4271866 31.8965998,7.4271866 L31.1225674,7.30968642 L30.3485349,7.18924873 C30.3514724,7.16427994 29.5671587,7.13196739 29.5671587,7.13196739 L28.782845,7.09231108 L28.9517515,2.52302269 L28,2.47749137 L27.0467798,2.52302269 L26.0950283,2.57149152 C26.0950283,2.57149152 25.1432768,2.61996034 25.1447455,2.64639788 L25.2710582,3.78174341 C25.2695895,3.75530587 26.1802159,3.7112433 26.1802159,3.7112433 L27.0893736,3.66571198 L28,3.62018066 L28,7.04971727 L27.2156863,7.09231108 L26.4328413,7.13196739 C26.4328413,7.13196739 25.6485276,7.16427994 25.6514651,7.18924873 L24.8774326,7.30968642 L24.1034002,7.4271866 C24.1034002,7.4271866 23.9080561,7.44921789 23.7171183,7.49034295 C23.5276493,7.54028053 23.3381802,7.59021811 23.3381802,7.59021811 L22.3247411,3.13108614 L21.4008959,3.36755526 L20.475582,3.60843064 L19.5767056,3.92714989 L18.6807667,4.2561504 L19.0978923,5.32099581 L19.9541749,5.00668282 L20.813395,4.69971359 L21.6961152,4.47205699 L22.5817728,7.78556216 L21.8224278,7.97796872 L21.0865829,8.24381288 L20.3522068,8.51259455 C20.3522068,8.51259455 19.6163619,8.77990747 19.6266432,8.80193875 L18.9216421,9.14415804 L18.2151722,9.48197107 L16.0752001,5.4414335 C16.0634501,5.41940222 15.2468238,5.91290299 15.2468238,5.91290299 L14.4316663,6.40787251 C14.4316663,6.40787251 13.6106338,6.89549827 13.6238525,6.91459205 L12.8586326,7.4859367 L13.5371962,8.40390688 L14.2686348,7.85899978 C14.255416,7.839906 15.0397297,7.37578027 15.0397297,7.37578027 L15.8196372,6.90137328 L17.5366087,9.87119042 L16.8668576,10.2780348 C16.8668576,10.2780348 16.1897628,10.6716604 16.2029816,10.6907542 L15.5758243,11.1622237 L14.9471984,11.6307557 C14.9471984,11.6307557 14.7915106,11.7497246 14.6358229,11.8672248 C14.4918851,12.0008813 14.3479474,12.133069 14.3479474,12.133069 L13.7677903,12.660351 L10.6569729,9.31012705 L9.9519718,9.9519718 L9.31012705,10.6569729 L8.66828229,11.3634428 C8.66828229,11.3634428 8.50818829,11.539693 8.34809429,11.7174121 C8.20268782,11.9054124 8.05728134,12.0948814 8.05728134,12.0948814 L8.95028273,12.808695 C8.95028273,12.808695 9.0898142,12.6280385 9.22787692,12.4473819 C9.38062716,12.2784754 9.53484615,12.1095689 9.53484615,12.1095689 L10.1473159,11.4354116 L10.7612543,10.7612543 L13.1861644,13.1861644 L12.660351,13.7677903 L12.133069,14.3479474 C12.133069,14.3479474 12.0008813,14.4918851 11.8672248,14.6358229 C11.7497246,14.7915106 11.6307557,14.9471984 11.6307557,14.9471984 L11.1622237,15.5758243 L10.6907542,16.2029816 C10.6716604,16.1897628 10.2780348,16.8668576 10.2780348,16.8668576 L6.40787251,14.4316663 L5.91290299,15.2468238 C5.91290299,15.2468238 5.41940222,16.0634501 5.4414335,16.0752001 L5.0257766,16.9344202 L4.61158846,17.7951091 L5.66027759,18.2533598 L6.05537196,17.4323272 L6.45046633,16.609826 C6.4299038,16.5980759 6.90137328,15.8196372 6.90137328,15.8196372 L9.87119042,17.5366087 C9.87119042,17.5366087 9.45993978,18.2034222 9.48197107,18.2151722 L9.14415804,18.9216421 L8.80193875,19.6266432 C8.77990747,19.6163619 8.51259455,20.3522068 8.51259455,20.3522068 L8.24381288,21.0865829 L7.97796872,21.8224278 L4.69971359,20.813395 L3.60843064,20.475582 L3.36755526,21.4008959 L3.13108614,22.3247411 C3.13108614,22.3247411 3.07233605,22.556804 3.01358596,22.7873981 C2.96364838,23.0209297 2.93280458,23.2573988 2.93280458,23.2573988 L2.78886686,24.2018066 L3.91833737,24.3707131 L4.05640009,23.4688992 C4.05640009,23.4688992 4.08430638,23.2427113 4.13277521,23.0209297 C4.18858779,22.7991481 4.24586913,22.5788353 4.24586913,22.5788353 L4.47205699,21.6961152 L7.78556216,22.5817728 L7.59021811,23.3381802 C7.59021811,23.3381802 7.54028053,23.5276493 7.49034295,23.7171183 C7.44921789,23.9080561 7.4271866,24.1034002 7.4271866,24.1034002 L7.30968642,24.8774326 L7.18924873,25.6514651 C7.16427994,25.6485276 7.13196739,26.4328413 7.13196739,26.4328413 L7.09231108,27.217155 L5.9496218,27.1745612 L4.80840126,27.1319674 L3.66571198,27.0893736 L2.52302269,27.0482485 L2.47749137,28 L1.33333333,28 L1.38033341,27.0056547 L1.43173974,26.0113094 L2.57149152,26.0950283 L3.7112433,26.1802159 L5.99074686,26.3491224 C5.99074686,26.3491224 6.02893442,25.5222149 6.05390321,25.5251524 L6.18021591,24.7085261 L6.3035911,23.8918998 C6.3035911,23.8918998 6.32709114,23.6862745 6.3711537,23.4850554 C6.42256004,23.2853051 6.47543512,23.0855548 6.47543512,23.0855548 L5.36065213,22.8314607 C5.36065213,22.8314607 5.30630829,23.042961 5.25196446,23.2529926 C5.20643314,23.4644929 5.17999559,23.6803995 5.17999559,23.6803995 L5.04927664,24.5396196 L4.91855769,25.3988397 L3.78174341,25.272527 L2.64492913,25.1447455 L1.50958361,25.0184328 L1.65792759,24.0329001 L1.80920908,23.0473673 C1.80920908,23.0473673 1.84152163,22.7991481 1.89439671,22.5553352 C1.95461555,22.3144599 2.01630315,22.0721157 2.01630315,22.0721157 L2.26452229,21.1056767 L2.51567893,20.1392377 L2.8490857,19.1992362 L7.16427994,20.7091136 L7.44774914,19.9336124 C7.44774914,19.9336124 7.73268708,19.1595799 7.75471837,19.1683925 L8.11456268,18.4252038 L8.47146949,17.6805464 L7.46096791,17.1459205 L7.08496732,17.9287655 L6.70749798,18.7101417 C6.6854667,18.7013292 6.38437248,19.5164867 6.38437248,19.5164867 L5.32099581,19.0978923 L4.2561504,18.6807667 L3.19277374,18.2621723 C3.19277374,18.2621723 3.54233678,17.3280458 3.56436807,17.3383271 L3.99618124,16.4379819 L4.43093192,15.5405743 C4.40890064,15.5288243 4.92296394,14.6740104 4.92296394,14.6740104 L5.43996475,13.8221341 C5.43996475,13.8221341 5.95109055,12.9643828 5.97165308,12.9790703 L9.74634648,15.5581993 L10.2427848,14.8972608 L10.7377543,14.2348535 C10.7377543,14.2348535 10.8625982,14.0703532 10.9874422,13.905853 C11.1269736,13.7545715 11.2665051,13.6018213 11.2665051,13.6018213 L11.8231622,12.9908203 L10.9845047,12.2123816 L10.3999412,12.8556951 C10.3999412,12.8556951 10.2545348,13.0157891 10.1076595,13.1773518 C9.97547184,13.3491959 9.84328413,13.5210399 9.84328413,13.5210399 L9.32334582,14.2172285 L6.56649776,12.1786003 L7.16427994,11.3810678 C7.16427994,11.3810678 7.31556143,11.184255 7.46831167,10.9874422 C7.63574943,10.8023794 7.80171844,10.6173166 7.80171844,10.6173166 L8.47146949,9.88000294 L9.14415804,9.14415804 L9.88000294,8.47146949 L10.6173166,7.80171844 L13.6018213,11.2665051 C13.6018213,11.2665051 13.7545715,11.1269736 13.9073217,10.9874422 C14.0703532,10.8625982 14.2348535,10.7377543 14.2348535,10.7377543 L14.8972608,10.2427848 L15.5581993,9.74634648 C15.5449805,9.7272527 16.2587942,9.31012705 16.2587942,9.31012705 L15.649262,8.34221928 C15.649262,8.34221928 14.9001983,8.78284497 14.9134171,8.80340751 L14.2172285,9.32334582 L13.5210399,9.84328413 L11.3810678,7.16427994 L12.1786003,6.56649776 L12.9790703,5.97165308 C12.9643828,5.95109055 13.8221341,5.43996475 13.8221341,5.43996475 L14.6740104,4.92296394 C14.6740104,4.92296394 15.5288243,4.40890064 15.5405743,4.43093192 L16.4379819,3.99618124 L18.4252038,8.11456268 L19.1683925,7.75471837 C19.1595799,7.73268708 19.9336124,7.44774914 19.9336124,7.44774914 L20.7091136,7.16427994 L21.4860836,6.88521701 L21.1497393,5.7924653 L20.3316443,6.08621576 L19.5164867,6.38437248 C19.5164867,6.38437248 18.7013292,6.6854667 18.7101417,6.70749798 L17.3383271,3.56436807 C17.3280458,3.54233678 18.2621723,3.19277374 18.2621723,3.19277374 L19.1992362,2.8490857 L20.1392377,2.51567893 L21.1056767,2.26452229 L22.0721157,2.01630315 C22.0721157,2.01630315 22.3129911,1.95461555 22.5553352,1.89439671 C22.7991481,1.84152163 23.0473673,1.80920908 23.0473673,1.80920908 L23.8918998,6.3035911 L24.7085261,6.18021591 L25.5251524,6.05390321 C25.5222149,6.02893442 26.3491224,5.99074686 26.3491224,5.99074686 L27.1745612,5.9496218 L27.1319674,4.80840126 L26.2639348,4.85099508 C26.2639348,4.85099508 25.3959022,4.89212014 25.3988397,4.91708893 L24.5396196,5.04927664 L24.0329001,1.65792759 L25.0184328,1.50958361 C25.0169641,1.48314607 26.0113094,1.43173974 26.0113094,1.43173974 L27.0056547,1.38033341 L28,1.33333333 L28.9943453,1.38033341 L29.9886906,1.43173974 L29.6508776,5.99074686 C29.6508776,5.99074686 30.4777851,6.02893442 30.4748476,6.05390321 L31.2914739,6.18021591 L32.1081002,6.3035911 C32.1081002,6.3035911 32.3137255,6.32709114 32.5149446,6.3711537 C32.7146949,6.42256004 32.9144452,6.47543512 32.9144452,6.47543512 L33.1670706,5.36065213 C33.1670706,5.36065213 32.957039,5.30630829 32.7470074,5.25196446 C32.5355071,5.20643314 32.3196005,5.17999559 32.3196005,5.17999559 L31.4603804,5.04927664 L30.6011603,4.91708893 L30.9815672,1.50958361 L31.9670999,1.65792759 L32.9526327,1.80920908 C32.9526327,1.80920908 33.2008519,1.84152163 33.4446648,1.89439671 C33.6855401,1.95461555 33.9278843,2.01630315 33.9278843,2.01630315 L34.8943233,2.26452229 L35.8607623,2.51567893 L36.8007638,2.8490857 L35.2908864,7.16427994 L36.0663876,7.44774914 C36.0663876,7.44774914 36.8404201,7.73268708 36.8316075,7.75471837 L37.5747962,8.11456268 L38.3194536,8.47146949 L38.8540795,7.46096791 L38.0712345,7.08496732 L37.2883895,6.70749798 C37.2986708,6.6854667 36.4835133,6.38437248 36.4835133,6.38437248 L37.7378277,3.19277374 C37.7378277,3.19277374 38.6719542,3.54233678 38.6616729,3.56436807 L39.5620181,3.99618124 L40.4594257,4.43093192 C40.4711757,4.40890064 41.3259896,4.92296394 41.3259896,4.92296394 L42.1778659,5.43996475 C42.1778659,5.43996475 43.0341485,5.95109055 43.0209297,5.97165308 L40.4418007,9.74634648 L41.1027392,10.2427848 L41.7651465,10.7377543 C41.7651465,10.7377543 41.9296468,10.8625982 42.094147,10.9874422 C42.2454285,11.1269736 42.3981787,11.2665051 42.3981787,11.2665051 L43.0091797,11.8231622 L43.7876184,10.9845047 L43.1443049,10.3999412 C43.1443049,10.3999412 42.9842109,10.2545348 42.8226482,10.1076595 C42.6508041,9.97547184 42.4789601,9.84328413 42.4789601,9.84328413 L41.7827715,9.32334582 L43.8213997,6.56649776 L44.6189322,7.16427994 C44.6189322,7.16427994 44.815745,7.31556143 45.0125578,7.46831167 C45.1976206,7.63574943 45.3826834,7.80171844 45.3826834,7.80171844 L46.1199971,8.47146949 L46.855842,9.14415804 L47.5285305,9.88000294 L48.1982816,10.6173166 L44.7334949,13.6018213 C44.7334949,13.6018213 44.8730264,13.7545715 45.0125578,13.905853 C45.1374018,14.0703532 45.2622457,14.2348535 45.2622457,14.2348535 L45.7572152,14.8972608 L46.2536535,15.5581993 C46.2727473,15.5449805 46.689873,16.2587942 46.689873,16.2587942 L47.6577807,15.649262 C47.6577807,15.649262 47.2156863,14.9001983 47.1965925,14.9134171 L46.6766542,14.2172285 L46.1567159,13.5210399 L48.8357201,11.3810678 L49.4335022,12.1786003 L50.0283469,12.9790703 C50.0489095,12.9643828 50.5600353,13.8221341 50.5600353,13.8221341 L51.0770361,14.6740104 C51.0770361,14.6740104 51.5910994,15.5288243 51.5690681,15.5405743 L52.0038188,16.4379819 L50.9742234,16.9344202 L49.944628,17.4323272 L48.9150327,17.9287655 L47.8854373,18.4252038 L48.2452816,19.1683925 C48.2673129,19.1595799 48.5522509,19.9336124 48.5522509,19.9336124 L48.8357201,20.7091136 L49.114783,21.4860836 L50.2075347,21.1497393 L49.9137842,20.3316443 L49.6156275,19.5164867 C49.6156275,19.5164867 49.3145333,18.7013292 49.292502,18.7101417 L52.4356319,17.3383271 C52.4576632,17.3280458 52.8072263,18.2621723 52.8072263,18.2621723 L53.1509143,19.1992362 L53.4843211,20.1392377 L53.7354777,21.1056767 L53.9836968,22.0721157 C53.9836968,22.0721157 54.0453844,22.3144599 54.1056033,22.5553352 C54.1584784,22.7991481 54.1907909,23.0473673 54.1907909,23.0473673 L49.6964089,23.8918998 L49.8197841,24.7085261 L49.9460968,25.5251524 C49.9710656,25.5222149 50.0092531,26.3491224 50.0092531,26.3491224 L50.0503782,27.1745612 L51.1915987,27.1319674 L51.1490049,26.2639348 C51.1490049,26.2639348 51.1078799,25.3959022 51.0814423,25.3988397 L50.9507234,24.5396196 L52.0816626,24.3707131 L54.3420724,24.0329001 L54.4904164,25.0184328 C54.5168539,25.0169641 54.5682603,26.0113094 54.5682603,26.0113094 L54.6196666,27.0056547 L54.6666667,28 L53.5225086,28 L53.4769773,27.0482485 L53.4285085,26.0950283 C53.4285085,26.0950283 53.3800397,25.1432768 53.3550709,25.1447455 L52.2182566,25.2710582 C52.2446941,25.2695895 52.2887567,26.1802159 52.2887567,26.1802159 L52.334288,27.0893736 L52.3798193,28 L48.9502827,28 L48.9076889,27.217155" id="Fill-8" fill="#AFA172"></path>
            <circle id="Oval-4" stroke="#AFA172" stroke-width="1.06666667" cx="28" cy="28" r="19.4666667"></circle>
            <path d="M27.9240356,43.9100403 C27.6771513,43.8055892 27.3827893,43.3118207 27.3827893,42.988972 C27.3827893,42.8370433 27.4492582,42.5141946 27.5347181,42.2768059 C27.705638,41.7830373 27.6676558,40.947429 27.4397626,40.5106338 C27.3637982,40.358705 27.1833828,39.9978741 27.0504451,39.7130076 C26.9080119,39.4281412 26.4807122,38.5925329 26.1103858,37.8613756 C25.3507418,36.38007 25.0468843,35.6109305 24.9519288,34.9367465 C24.9234421,34.6898622 24.8569733,34.4619691 24.8094955,34.4334824 C24.7335312,34.3955002 23.8884273,35.3925329 23.7744807,35.6584082 C23.7080119,35.8198326 22.8344214,37.1776961 22.6160237,37.4815536 C22.274184,37.93734 21.6474777,38.5640462 21.2106825,38.8963904 C20.5080119,39.4186456 19.9857567,39.6655299 19.0836795,39.8554409 C17.9347181,40.1118207 17.1275964,39.9503964 16.8142433,39.3996545 C16.4724036,38.8109305 16.7002967,38.2601887 17.4504451,37.8803667 C17.7163205,37.7379335 18.0581602,37.5100403 18.2005935,37.3581115 C18.4569733,37.0827406 18.8367953,36.4370433 18.8367953,36.2471323 C18.8367953,36.1996545 18.9032641,36.0287346 18.9792285,35.8768059 C19.0646884,35.7248771 19.1691395,35.4400106 19.2166172,35.2595952 C19.3115727,34.8702777 19.8908012,33.0471323 20.1186944,32.4109305 C20.3465875,31.7842243 20.821365,30.863156 21.0302671,30.6352628 C21.1252226,30.5308118 21.2106825,30.4073697 21.2106825,30.3598919 C21.2106825,30.2649364 19.8243323,30.3693875 19.4540059,30.4928296 C19.3020772,30.5498029 18.7513353,30.6827406 18.2385757,30.7966872 C17.0706231,31.053067 15.1715134,31.0150848 14.4688427,30.7302183 C13.2913947,30.2459453 12.1804154,29.3153815 12.0474777,28.6981708 C11.9525223,28.2708711 12.0759644,27.8910492 12.379822,27.6726516 C12.7121662,27.4257673 13.1204748,27.4067762 13.7091988,27.6156783 C14.2029674,27.7865981 15.0385757,27.748616 15.4753709,27.5207228 C15.6272997,27.4447584 15.9881306,27.264343 16.272997,27.1314053 C16.5578635,26.988972 17.3744807,26.5711679 18.0771513,26.210337 C19.5679525,25.431702 20.3181009,25.13734 21.0017804,25.0423845 C21.2771513,25.0044023 21.5145401,24.9379335 21.5430267,24.8904557 C21.5905045,24.8239869 20.5934718,23.9693875 20.3275964,23.8554409 C20.1661721,23.788972 18.8083086,22.9153815 18.504451,22.6969839 C18.0581602,22.3646397 17.4219585,21.7284379 17.0801187,21.2916427 C16.5673591,20.6269542 16.3394659,20.104699 16.1305638,19.1646397 C15.874184,18.0156783 16.0356083,17.2085566 16.5863501,16.8952035 C17.1750742,16.5533637 17.725816,16.7812569 18.105638,17.5314053 C18.2480712,17.7972806 18.4759644,18.1391204 18.6278932,18.2815536 C18.9032641,18.5379335 19.5489614,18.9177554 19.7388724,18.9177554 C19.7863501,18.9177554 19.95727,18.9842243 20.1091988,19.0601887 C20.2611276,19.1456486 20.5459941,19.2500996 20.7264095,19.2975774 C21.115727,19.3925329 22.9388724,19.9717614 23.5750742,20.1996545 C24.2017804,20.4275477 25.1228487,20.9023251 25.3507418,21.1112272 C25.4551929,21.2061827 25.578635,21.2916427 25.6261128,21.2916427 C25.7210682,21.2916427 25.6166172,19.9052925 25.4931751,19.5349661 C25.4362018,19.3830373 25.3032641,18.8322955 25.1893175,18.3195358 C24.9329377,17.1515833 24.9709199,15.2524735 25.2557864,14.5498029 C25.7400593,13.3723548 26.6706231,12.2613756 27.2878338,12.1284379 C27.7151335,12.0334824 28.0949555,12.1569246 28.3133531,12.4607821 C28.5602374,12.7931263 28.5792285,13.2014349 28.3703264,13.790159 C28.2753709,14.0655299 28.2373887,14.3883786 28.2658754,14.6922361 C28.3323442,15.3094468 28.4367953,15.5563311 29.7946588,18.2055892 C30.5543027,19.6868949 30.8581602,20.4560343 30.9531157,21.1302183 C30.9816024,21.3771026 31.0480712,21.6049958 31.095549,21.6334824 C31.1715134,21.6714646 32.0166172,20.674432 32.1305638,20.4085566 C32.1970326,20.2471323 33.0706231,18.8892688 33.2890208,18.5854112 C33.621365,18.1391204 34.2575668,17.5029186 34.694362,17.1610789 C35.3590504,16.6483192 35.8813056,16.420426 36.821365,16.211524 C37.9703264,15.9551441 38.7774481,16.1165685 39.0908012,16.6673103 C39.4326409,17.2560343 39.2047478,17.8067762 38.4545994,18.1865981 C38.188724,18.3290314 37.8468843,18.5569246 37.704451,18.7088533 C37.4480712,18.9842243 37.0682493,19.6299216 37.0682493,19.8198326 C37.0682493,19.8673103 37.0017804,20.0382302 36.925816,20.190159 C36.8403561,20.3420878 36.735905,20.6269542 36.6884273,20.8073697 C36.5934718,21.1966872 36.0142433,23.0198326 35.7863501,23.6560343 C35.558457,24.2827406 35.0836795,25.2038088 34.8747774,25.431702 C34.779822,25.536153 34.694362,25.6595952 34.694362,25.7070729 C34.694362,25.8020284 36.0807122,25.6975774 36.4510386,25.5741352 C36.6124629,25.5171619 37.1537092,25.3842243 37.6664688,25.2702777 C38.8344214,25.0138979 40.7335312,25.05188 41.4362018,25.3367465 C42.6136499,25.8210195 43.7246291,26.7515833 43.8575668,27.368794 C43.9525223,27.7960937 43.8290801,28.1759157 43.5252226,28.3943133 C43.1928783,28.6411976 42.7845697,28.6601887 42.1958457,28.4512866 C41.7020772,28.2803667 40.8664688,28.3183489 40.4296736,28.5462421 C40.2777448,28.6222065 39.9169139,28.8026219 39.6320475,28.9355596 C39.347181,29.0779928 38.5305638,29.495797 37.8278932,29.8566278 C36.337092,30.6352628 35.5869436,30.9296249 34.9032641,31.0245803 C34.6278932,31.0625625 34.3905045,31.1290314 34.3620178,31.1765091 C34.3145401,31.242978 35.3115727,32.0975774 35.5774481,32.211524 C35.7388724,32.2779928 37.0967359,33.1515833 37.4005935,33.3699809 C37.8468843,33.7023251 38.4830861,34.3385269 38.8249258,34.7753222 C39.3376855,35.4400106 39.5655786,35.9622658 39.7744807,36.9023251 C40.0308605,38.0512866 39.8694362,38.8584082 39.3186944,39.1717614 C38.7299703,39.5136011 38.1792285,39.2857079 37.7994065,38.5355596 C37.6569733,38.2696842 37.4290801,37.9278444 37.2771513,37.7854112 C37.0017804,37.5290314 36.3560831,37.1492094 36.1661721,37.1492094 C36.1186944,37.1492094 35.9477745,37.0827406 35.7958457,37.0067762 C35.6439169,36.9213162 35.3590504,36.8168652 35.178635,36.7693875 C34.7893175,36.674432 32.9661721,36.0952035 32.3299703,35.8673103 C31.7032641,35.6394171 30.7821958,35.1646397 30.5543027,34.9557376 C30.4498516,34.8607821 30.3264095,34.7753222 30.2789318,34.7753222 C30.1839763,34.7753222 30.2789318,36.1616723 30.4118694,36.5319987 C30.9246291,38.0322955 31.0575668,40.2922361 30.6967359,41.3462421 C30.4118694,42.1723548 29.937092,42.9319987 29.4338279,43.3972806 C28.8356083,43.9480225 28.3988131,44.0904557 27.9240356,43.9100403 Z M29.3103858,41.8684973 C29.7756677,41.0708711 29.8801187,40.5581115 29.8231454,39.3521768 C29.7946588,38.7254706 29.6902077,37.8898622 29.5762611,37.4340759 C29.2059347,35.9337792 29.1679525,35.5919394 29.2154303,34.5854112 C29.2724036,33.2655299 29.5667656,32.505886 30.1364985,32.211524 C30.3169139,32.1165685 30.6397626,31.9076664 30.8391691,31.7462421 L31.2094955,31.45188 L31.5893175,32.0311085 C32.0925816,32.8097435 32.652819,33.3509898 33.3649852,33.768794 C33.6878338,33.958705 33.9727003,34.1106338 34.0106825,34.1106338 C34.0486647,34.1201293 34.2480712,34.1960937 34.4569733,34.3005447 C34.6658754,34.4049958 34.8747774,34.4809602 34.9222552,34.4904557 C34.9697329,34.4904557 35.3780415,34.65188 35.8243323,34.841791 C37.2391691,35.4495062 38.0367953,36.1141946 38.5020772,37.1017317 C38.8059347,37.747429 38.8724036,37.557518 38.6445104,36.7124142 C38.3881306,35.7533637 37.5810089,34.7658266 36.4795252,34.0441649 C36.2611276,33.9017317 36.0522255,33.7592984 36.0237389,33.7308118 C35.9952522,33.7023251 35.7673591,33.5503964 35.5014837,33.3984676 C34.9032641,33.0566278 33.6688427,32.1165685 33.4029674,31.8127109 C33.0991098,31.45188 32.5293769,30.4453519 32.4344214,30.1035121 C32.3869436,29.9041056 32.4154303,29.5432747 32.548368,28.9640462 C32.7002967,28.2803667 32.7667656,28.1379335 32.8902077,28.1854112 C33.2795252,28.3468355 34.0676558,28.4322955 34.884273,28.3848177 C35.748368,28.33734 36.1186944,28.2423845 37.1632047,27.7865981 C37.3436202,27.7011382 37.6284866,27.5871916 37.7804154,27.5207228 C37.9418398,27.4542539 38.2172107,27.3308118 38.3976261,27.2453519 C39.3756677,26.8085566 40.9614243,26.6566278 41.6356083,26.9319987 C41.8160237,26.9984676 42.062908,27.0934231 42.1958457,27.1314053 C42.4047478,27.1978741 42.4142433,27.1883786 42.3097923,27.0554409 C42.1198813,26.8275477 41.4551929,26.4667168 40.8854599,26.2768059 C40.2302671,26.0679038 38.5115727,26.1248771 37.3531157,26.4097435 C35.852819,26.78007 35.5109792,26.8180522 34.504451,26.7705744 C33.1845697,26.7136011 32.4249258,26.4192391 32.1305638,25.8495062 C32.0356083,25.6690907 31.8267062,25.3462421 31.6652819,25.1468355 L31.3709199,24.7765091 L31.9501484,24.3966872 C32.7287834,23.8934231 33.2700297,23.3331857 33.6878338,22.6210195 C33.8777448,22.2981708 34.0296736,22.0133044 34.0296736,21.9753222 C34.0391691,21.93734 34.1151335,21.7379335 34.2195846,21.5290314 C34.3240356,21.3201293 34.4,21.1112272 34.4094955,21.073245 C34.4094955,21.0257673 34.5709199,20.6174587 34.7608309,20.1711679 C35.368546,18.73734 36.0332344,17.9492094 37.0207715,17.4839275 C37.4480712,17.284521 37.5335312,17.2180522 37.3531157,17.2180522 C36.7074184,17.1990611 35.5109792,17.7498029 34.9317507,18.3195358 C34.4569733,18.7943133 33.7448071,19.705886 33.7448071,19.8483192 C33.7448071,19.9052925 33.7068249,19.9622658 33.6688427,19.9812569 C33.6308605,20.000248 33.4694362,20.2281412 33.3175074,20.484521 C32.947181,21.1397139 32.0166172,22.336153 31.684273,22.5925329 C30.9816024,23.1432747 30.2979228,23.5230967 29.8991098,23.58007 C29.7946588,23.5990611 29.3293769,23.5325922 28.8735905,23.4281412 C28.189911,23.2857079 28.0474777,23.2287346 28.104451,23.1052925 C28.2658754,22.7064795 28.3513353,21.9183489 28.3038576,21.1017317 C28.2563798,20.2376367 28.1614243,19.8673103 27.705638,18.8227999 C27.5252226,18.4239869 27.3353116,17.9776961 27.1548961,17.5693875 C26.7275964,16.6008415 26.5756677,15.0150848 26.8510386,14.3503964 C26.9175074,14.1699809 27.0124629,13.9230967 27.0504451,13.790159 C27.1169139,13.5812569 27.1074184,13.5717614 26.9744807,13.6762124 C26.7465875,13.8661234 26.3857567,14.5308118 26.1958457,15.1005447 C25.9869436,15.7557376 26.0439169,17.474432 26.3287834,18.6328889 C26.6991098,20.1331857 26.737092,20.4750254 26.6896142,21.4815536 C26.6326409,22.8014349 26.3382789,23.5610789 25.768546,23.8554409 C25.5881306,23.9503964 25.2652819,24.1592984 25.0658754,24.3207228 L24.695549,24.6150848 L24.315727,24.0358563 C23.8124629,23.2572213 23.2522255,22.715975 22.5400593,22.2981708 C22.2172107,22.1082599 21.9323442,21.9563311 21.894362,21.9563311 C21.8563798,21.9468355 21.6569733,21.8708711 21.4480712,21.7664201 C21.2391691,21.6619691 21.0302671,21.5860047 20.9922849,21.5765091 C20.9448071,21.5765091 20.5364985,21.4150848 20.0902077,21.2251738 C18.6563798,20.6174587 17.8682493,19.9527703 17.4029674,18.9652332 C17.0991098,18.3195358 17.0326409,18.5094468 17.2605341,19.3545507 C17.5169139,20.3136011 18.3240356,21.3011382 19.4255193,22.0227999 C19.6439169,22.1652332 19.852819,22.3076664 19.8813056,22.336153 C19.9097923,22.3646397 20.147181,22.5165685 20.4035608,22.6684973 C21.0017804,23.010337 22.2362018,23.9503964 22.5020772,24.2542539 C22.8059347,24.6150848 23.3756677,25.621613 23.4706231,25.9634527 C23.5181009,26.1628593 23.4896142,26.5236901 23.3566766,27.1029186 C23.2047478,27.7865981 23.1382789,27.9290314 23.0148368,27.8815536 C22.6255193,27.7201293 21.8373887,27.6346694 21.0207715,27.6821471 C20.0522255,27.7296249 19.7768546,27.8150848 18.0771513,28.5747287 C17.3175074,28.9165685 17.1465875,28.9735418 16.6338279,29.115975 C15.9691395,29.305886 14.6967359,29.3153815 14.2694362,29.1349661 C14.0890208,29.0684973 13.8421365,28.9735418 13.7091988,28.9355596 C13.5002967,28.8690907 13.4908012,28.8785863 13.5952522,29.011524 C13.7851632,29.2394171 14.4498516,29.600248 15.0195846,29.790159 C15.6747774,29.9990611 17.3934718,29.9420878 18.5519288,29.6572213 C20.0522255,29.2868949 20.3940653,29.2489127 21.4005935,29.2963904 C22.7204748,29.3533637 23.4801187,29.6477257 23.7744807,30.2174587 C23.8694362,30.3978741 24.0783383,30.7207228 24.2397626,30.9201293 L24.5341246,31.2904557 L23.9548961,31.6702777 C23.1762611,32.1735418 22.6350148,32.7337792 22.2172107,33.4459453 C22.0272997,33.768794 21.8753709,34.0536605 21.8753709,34.0916427 C21.8658754,34.1296249 21.789911,34.3290314 21.6854599,34.5379335 C21.5810089,34.7468355 21.5050445,34.9557376 21.495549,34.9937198 C21.495549,35.0411976 21.3341246,35.4495062 21.1442136,35.895797 C20.5364985,37.3296249 19.8718101,38.1177554 18.884273,38.5830373 C18.4569733,38.7824438 18.3715134,38.8489127 18.5519288,38.8489127 C19.1976261,38.8679038 20.3940653,38.3171619 20.9732938,37.747429 C21.4480712,37.2726516 22.1602374,36.3610789 22.1602374,36.2186456 C22.1602374,36.1616723 22.1982196,36.104699 22.2362018,36.0857079 C22.274184,36.0762124 22.4356083,35.8483192 22.5875371,35.5824438 C22.9293769,34.9842243 23.8694362,33.7498029 24.1637982,33.4934231 C24.6765579,33.0661234 25.6261128,32.5438682 26.0059347,32.4868949 C26.1103858,32.4679038 26.5756677,32.5343726 27.031454,32.6388237 C27.7151335,32.7812569 27.8575668,32.8382302 27.8005935,32.9616723 C27.4967359,33.6928296 27.5252226,35.5444616 27.8480712,36.3895655 C28.104451,37.0447584 28.3133531,37.5290314 28.4272997,37.7379335 C28.5412463,37.9468355 28.7691395,38.5450551 29.0065282,39.2857079 C29.2249258,39.9693875 29.2534125,41.241791 29.0540059,41.7165685 C28.9875371,41.8969839 28.8925816,42.1438682 28.8545994,42.2768059 C28.7881306,42.4857079 28.7976261,42.4952035 28.9305638,42.3907524 C29.0160237,42.3147881 29.1869436,42.0868949 29.3103858,41.8684973 Z" id="Shape" fill="#AFA172" fill-rule="nonzero" transform="translate(27.952522, 28.040480) scale(-1, 1) rotate(-180.000000) translate(-27.952522, -28.040480) "></path>
            <path d="M28.0094955,30.6571711 C29.4822549,30.6571711 30.6761622,29.4632638 30.6761622,27.9905045 C30.6761622,26.5177451 29.4822549,25.3238378 28.0094955,25.3238378 C26.5367362,25.3238378 25.3428289,26.5177451 25.3428289,27.9905045 C25.3428289,29.4632638 26.5367362,30.6571711 28.0094955,30.6571711 Z M28.0094955,31.7238378 C25.9476325,31.7238378 24.2761622,30.0523675 24.2761622,27.9905045 C24.2761622,25.9286414 25.9476325,24.2571711 28.0094955,24.2571711 C30.0713586,24.2571711 31.7428289,25.9286414 31.7428289,27.9905045 C31.7428289,30.0523675 30.0713586,31.7238378 28.0094955,31.7238378 Z" id="Oval-2" fill="#AFA172" fill-rule="nonzero" transform="translate(28.009496, 27.990504) scale(-1, 1) rotate(-180.000000) translate(-28.009496, -27.990504) "></path>
            <circle id="Oval" fill="#AFA172" transform="translate(28.009496, 27.990504) scale(-1, 1) rotate(-180.000000) translate(-28.009496, -27.990504) " cx="28.0094955" cy="27.9905045" r="1.6"></circle>
            <path d="M22.378635,19.8553984 C22.3501484,19.7699384 22.4451039,19.5515408 22.6255193,19.3141521 C22.7869436,19.0957545 23.0338279,18.6969414 23.15727,18.4215705 C23.3756677,17.9752797 23.3946588,17.8138554 23.3946588,16.6459028 L23.3946588,15.3545082 L23.727003,14.8797307 C23.9074184,14.6233509 24.0593472,14.3764666 24.0593472,14.34798 C24.0593472,14.3194933 24.1448071,14.1865557 24.2492582,14.053618 L24.4391691,13.8067337 L24.6860534,14.3669711 C24.9139466,14.8892263 25.2462908,15.5634103 25.6166172,16.2565853 C25.7020772,16.4180097 25.768546,16.6364073 25.768546,16.7598494 C25.768546,17.0921936 25.3982196,17.8993153 24.9804154,18.4690482 C24.2492582,19.4755764 22.5780415,20.368158 22.378635,19.8553984 Z" id="Shape" fill="#AFA172" fill-rule="nonzero" transform="translate(24.071095, 16.905741) scale(-1, 1) rotate(-180.000000) translate(-24.071095, -16.905741) "></path>
            <path d="M33.8587537,19.7956762 C33.8017804,19.7387029 33.7448071,19.5013142 33.7448071,19.2829166 C33.7448071,18.4757949 33.4029674,17.8490887 32.4344214,16.8805427 C31.5703264,16.0259433 31.5323442,15.96897 31.3994065,15.3612549 C31.1240356,14.1838068 31.1335312,13.9464181 31.4183976,14.1933024 C31.5893175,14.3357356 33.2130564,14.9149641 33.7068249,15.0194151 C34.105638,15.0953795 34.3335312,15.380246 34.5804154,16.0639255 C34.9792285,17.1749047 34.9412463,18.4473083 34.4854599,19.3968632 C34.2575668,19.8811362 34.0676558,20.0045783 33.8587537,19.7956762 Z" id="Shape" fill="#AFA172" fill-rule="nonzero" transform="translate(33.027014, 16.999322) scale(-1, 1) rotate(-180.000000) translate(-33.027014, -16.999322) "></path>
            <path d="M15.4183976,24.7440791 C14.8391691,24.639628 14.0985163,24.3072838 14.0320475,24.1268684 C13.9275964,23.8704886 14.1744807,23.6995687 14.6587537,23.6995687 C15.4373887,23.6995687 16.1115727,23.3197467 17.0611276,22.3512007 C17.8682493,21.525088 17.9252226,21.4871058 18.5329377,21.3541681 C19.7198813,21.0787972 19.95727,21.0882927 19.7103858,21.3731592 C19.5679525,21.5440791 18.988724,23.1678179 18.884273,23.6615865 C18.8557864,23.8230108 18.7323442,24.0414084 18.6183976,24.1458595 C18.0771513,24.6301325 16.4249258,24.93399 15.4183976,24.7440791 Z" id="Shape" fill="#AFA172" fill-rule="nonzero" transform="translate(16.903295, 22.977381) scale(-1, 1) rotate(-180.000000) translate(-16.903295, -22.977381) "></path>
            <path d="M41.4362018,25.5586404 C41.2557864,25.397216 40.8854599,25.1598273 40.610089,25.0363852 C40.1637982,24.8274831 39.9928783,24.808492 38.8344214,24.808492 L37.5525223,24.808492 L37.0967359,24.5046344 C36.8498516,24.3337146 36.5175074,24.1248125 36.3750742,24.0488481 C36.2326409,23.9728837 36.1091988,23.8684327 36.1091988,23.8114594 C36.1091988,23.7639816 36.441543,23.5645751 36.8498516,23.3841597 C37.2581602,23.2037442 37.8089021,22.9283733 38.0652819,22.7859401 C38.8154303,22.3586404 39.052819,22.3586404 39.8789318,22.766949 C40.7525223,23.1942487 41.4646884,23.8779282 41.8919881,24.6945454 C42.4142433,25.6820825 42.148368,26.1853466 41.4362018,25.5586404 Z" id="Shape" fill="#AFA172" fill-rule="nonzero" transform="translate(39.137374, 24.149053) scale(-1, 1) rotate(-180.000000) translate(-39.137374, -24.149053) "></path>
            <path d="M16.2255193,33.4440893 C15.2379822,32.9977985 14.5068249,32.3236145 14.0225519,31.4025463 C13.4813056,30.4055136 13.6712166,29.9592228 14.4023739,30.5099647 C14.6207715,30.671389 15.0195846,30.9182733 15.2949555,31.0417154 C15.7412463,31.260113 15.9026706,31.2791041 17.0706231,31.2791041 L18.3525223,31.2791041 L18.8083086,31.5924572 C19.0551929,31.7538816 19.3875371,31.9627836 19.5394659,32.038748 C19.6818991,32.124208 19.8148368,32.228659 19.8243323,32.2761368 C19.8243323,32.314119 19.4919881,32.5135255 19.074184,32.6939409 C18.6563798,32.8838519 18.105638,33.1592228 17.8397626,33.3111516 C17.1940653,33.6719825 16.8142433,33.7004691 16.2255193,33.4440893 Z" id="Shape" fill="#AFA172" fill-rule="nonzero" transform="translate(16.767994, 31.942223) scale(-1, 1) rotate(-180.000000) translate(-16.767994, -31.942223) "></path>
            <path d="M36.1186944,34.8909163 C36.1186944,34.8434386 36.1566766,34.7674742 36.1946588,34.7199965 C36.337092,34.5490766 36.9163205,32.9253377 37.0207715,32.4315692 C37.0967359,32.0327561 37.3721068,31.8048629 38.1127596,31.529492 C38.9863501,31.2066434 40.3821958,31.2161389 41.1893175,31.5484831 C41.8255193,31.8143585 42.0154303,32.013765 41.8255193,32.2416582 C41.7400593,32.3461092 41.5406528,32.393587 41.2462908,32.393587 C40.4676558,32.393587 39.7934718,32.7734089 38.8439169,33.7419549 C38.0367953,34.5680677 37.979822,34.6060499 37.3721068,34.7389876 C36.4510386,34.9478896 36.1186944,34.9858718 36.1186944,34.8909163 Z" id="Shape" fill="#AFA172" fill-rule="nonzero" transform="translate(39.007212, 33.116675) scale(-1, 1) rotate(-180.000000) translate(-39.007212, -33.116675) "></path>
            <path d="M31.2189911,41.7281071 C30.9910979,41.205852 30.6587537,40.531668 30.2884273,39.8384929 C30.0890208,39.4586709 30.0985163,39.2022911 30.3454006,38.6230626 C30.7442136,37.6640122 31.4658754,36.8853772 32.3869436,36.4011042 C33.3839763,35.8598579 33.8302671,36.0497689 33.2795252,36.7809261 C33.1181009,36.9993238 32.8712166,37.3981368 32.7477745,37.6735077 C32.5293769,38.1197985 32.5103858,38.2812229 32.5103858,39.4491754 L32.5103858,40.7405701 L32.1780415,41.2153475 C31.9976261,41.4717273 31.8456973,41.7186116 31.8456973,41.7470982 C31.8456973,41.7755849 31.7602374,41.9085226 31.6557864,42.0414603 L31.4658754,42.2883445 L31.2189911,41.7281071 Z" id="Shape" fill="#AFA172" fill-rule="nonzero" transform="translate(31.833358, 39.189276) scale(-1, 1) rotate(-180.000000) translate(-31.833358, -39.189276) "></path>
            <path d="M24.4866469,41.9009581 C24.315727,41.7585248 22.6919881,41.1792964 22.1982196,41.0748453 C21.7994065,40.9988809 21.5715134,40.72351 21.2961424,39.9828572 C20.9732938,39.1092667 20.9827893,37.713421 21.3151335,36.9062993 C21.4480712,36.5929462 21.6189911,36.2985842 21.704451,36.2511065 C21.9608309,36.0896821 22.1602374,36.3365664 22.1602374,36.8018483 C22.1602374,37.6184655 22.4925816,38.2451717 23.4706231,39.2137177 C24.3347181,40.0683171 24.3727003,40.1252904 24.505638,40.7330056 C24.7810089,41.9104536 24.7715134,42.1478424 24.4866469,41.9009581 Z" id="Shape" fill="#AFA172" fill-rule="nonzero" transform="translate(22.883096, 39.095286) scale(-1, 1) rotate(-180.000000) translate(-22.883096, -39.095286) "></path>
            <circle id="Oval-4" stroke="#AFA172" stroke-width="1.06666667" cx="28" cy="28" r="28"></circle>
        </g>
    </g>
</svg>