<svg xmlns="http://www.w3.org/2000/svg" width="130" height="8" viewBox="0 0 130 8"><title>  pattern</title><desc>  Created with Sketch.</desc><g fill="none"><polyline points="128.5 0 120.7 0 120.7 6.4 114.5 6.4 114.5 4.8 119.2 4.8 119.2 0 109.9 0 109.9 6.4 103.7 6.4 103.7 4.8 108.3 4.8 108.3 0 99 0 99 6.4 92.9 6.4 92.9 4.8 97.5 4.8 97.5 0 88.2 0 88.2 6.4 82 6.4 82 4.8 86.7 4.8 86.7 0 77.4 0 77.4 6.4 71.2 6.4 71.2 4.8 75.8 4.8 75.8 0 66.5 0 66.5 6.4 60.4 6.4 60.4 4.8 65 4.8 65 0 55.7 0 55.7 6.4 49.5 6.4 49.5 4.8 54.2 4.8 54.2 0 44.9 0 44.9 6.4 38.7 6.4 38.7 4.8 43.3 4.8 43.3 0 34 0 34 6.4 27.9 6.4 27.9 4.8 32.5 4.8 32.5 0 23.2 0 23.2 6.4 17 6.4 17 4.8 21.7 4.8 21.7 0 12.4 0 12.4 6.4 6.2 6.4 6.2 4.8 10.8 4.8 10.8 0 1.5 0 1.5 6.4 0 6.4 0 8 3.1 8 3.1 1.6 9.3 1.6 9.3 3.2 4.6 3.2 4.6 8 13.9 8 13.9 1.6 20.1 1.6 20.1 3.2 15.5 3.2 15.5 8 24.8 8 24.8 1.6 31 1.6 31 3.2 26.3 3.2 26.3 8 35.6 8 35.6 1.6 41.8 1.6 41.8 3.2 37.1 3.2 37.1 8 46.4 8 46.4 1.6 52.6 1.6 52.6 3.2 48 3.2 48 8 57.3 8 57.3 1.6 63.5 1.6 63.5 3.2 58.8 3.2 58.8 8 68.1 8 68.1 1.6 74.3 1.6 74.3 3.2 69.6 3.2 69.6 8 78.9 8 78.9 1.6 85.1 1.6 85.1 3.2 80.5 3.2 80.5 8 89.8 8 89.8 1.6 96 1.6 96 3.2 91.3 3.2 91.3 8 100.6 8 100.6 1.6 106.8 1.6 106.8 3.2 102.1 3.2 102.1 8 111.4 8 111.4 1.6 117.6 1.6 117.6 3.2 113 3.2 113 8 122.3 8 122.3 1.6 128.5 1.6 128.5 3.2 123.8 3.2 123.8 8 130 8 130 6.4 125.4 6.4 125.4 4.8 130 4.8 130 0 128.5 0" fill="#AFA172"/></g></svg>