<?xml version="1.0" encoding="UTF-8"?>
<svg width="130px" height="8px" viewBox="0 0 130 8" version="1.1" xmlns="http://www.w3.org/2000/svg" xmlns:xlink="http://www.w3.org/1999/xlink">
    <!-- Generator: Sketch 49 (51002) - http://www.bohemiancoding.com/sketch -->
    <title>pattern</title>
    <desc>Created with Sketch.</desc>
    <defs></defs>
    <g id="pattern" stroke="none" stroke-width="1" fill="none" fill-rule="evenodd">
        <polyline id="Combined-Shape" fill="#AFA172" points="128.45213 0 120.712781 0 120.712781 6.4 114.521302 6.4 114.521302 4.8 119.164912 4.8 119.164912 0 109.881203 0 109.881203 6.4 103.689724 6.4 103.689724 4.8 108.333333 4.8 108.333333 0 99.0461148 0 99.0461148 6.4 92.8581457 6.4 92.8581457 4.8 97.498245 4.8 97.498245 0 88.2145364 0 88.2145364 6.4 82.0230574 6.4 82.0230574 4.8 86.6666667 4.8 86.6666667 0 77.3794481 0 77.3794481 6.4 71.191479 6.4 71.191479 4.8 75.8315784 4.8 75.8315784 0 66.5478698 0 66.5478698 6.4 60.3563907 6.4 60.3563907 4.8 65 4.8 65 0 55.7127815 0 55.7127815 6.4 49.5248124 6.4 49.5248124 4.8 54.1684216 4.8 54.1684216 0 44.8812031 0 44.8812031 6.4 38.6897241 6.4 38.6897241 4.8 43.3333333 4.8 43.3333333 0 34.0496247 0 34.0496247 6.4 27.8581457 6.4 27.8581457 4.8 32.501755 4.8 32.501755 0 23.2145364 0 23.2145364 6.4 17.0265673 6.4 17.0265673 4.8 21.6666667 4.8 21.6666667 0 12.382958 0 12.382958 6.4 6.19147902 6.4 6.19147902 4.8 10.8350883 4.8 10.8350883 0 1.54786976 0 1.54786976 6.4 0 6.4 0 8 3.09573951 8 3.09573951 1.6 9.28721853 1.6 9.28721853 3.2 4.64360927 3.2 4.64360927 8 13.9308278 8 13.9308278 1.6 20.1187969 1.6 20.1187969 3.2 15.4786976 3.2 15.4786976 8 24.7624062 8 24.7624062 1.6 30.9538852 1.6 30.9538852 3.2 26.3102759 3.2 26.3102759 8 35.5974945 8 35.5974945 1.6 41.7854636 1.6 41.7854636 3.2 37.1418543 3.2 37.1418543 8 46.4290728 8 46.4290728 1.6 52.6205519 1.6 52.6205519 3.2 47.9769426 3.2 47.9769426 8 57.2606512 8 57.2606512 1.6 63.4521302 1.6 63.4521302 3.2 58.808521 3.2 58.808521 8 68.0957395 8 68.0957395 1.6 74.2872185 1.6 74.2872185 3.2 69.6436093 3.2 69.6436093 8 78.9273179 8 78.9273179 1.6 85.1187969 1.6 85.1187969 3.2 80.4751876 3.2 80.4751876 8 89.7624062 8 89.7624062 1.6 95.9503753 1.6 95.9503753 3.2 91.3102759 3.2 91.3102759 8 100.593985 8 100.593985 1.6 106.785464 1.6 106.785464 3.2 102.141854 3.2 102.141854 8 111.429073 8 111.429073 1.6 117.617042 1.6 117.617042 3.2 112.973433 3.2 112.973433 8 122.260651 8 122.260651 1.6 128.45213 1.6 128.45213 3.2 123.808521 3.2 123.808521 8 130 8 130 6.4 125.356391 6.4 125.356391 4.8 130 4.8 130 0 128.45213 0"></polyline>
    </g>
</svg>